<svg width="79" xmlns="http://www.w3.org/2000/svg" height="28.25" id="screenshot-a8a19d98-768b-8006-8005-015c13a693c5" fill="none" version="1.1"><style>@font-face{font-family:&apos;Coda&apos;;font-style:normal;font-weight:400;font-display:block;src:url(https://design.penpot.app/internal/gfonts/font/coda/v21/SLXHc1jY5nQ8FUsGa6aN.woff2) format(&apos;woff2&apos;);unicode-range:U+0100-02AF, U+0304, U+0308, U+0329, U+1E00-1E9F, U+1EF2-1EFF, U+2020, U+20A0-20AB, U+20AD-20C0, U+2113, U+2C60-2C7F, U+A720-A7FF}@font-face{font-family:&apos;Coda&apos;;font-style:normal;font-weight:400;font-display:block;src:url(https://design.penpot.app/internal/gfonts/font/coda/v21/SLXHc1jY5nQ8FUUGaw.woff2) format(&apos;woff2&apos;);unicode-range:U+0000-00FF, U+0131, U+0152-0153, U+02BB-02BC, U+02C6, U+02DA, U+02DC, U+0304, U+0308, U+0329, U+2000-206F, U+2074, U+20AC, U+2122, U+2191, U+2193, U+2212, U+2215, U+FEFF, U+FFFD}</style><g id="shape-a8a19d98-768b-8006-8005-015c13a693c5" data-testid="Group"><g id="shape-a8a19d98-768b-8006-8005-015aea944ce2" data-testid="svg" style="fill: rgb(0, 0, 0);"><g id="shape-a8a19d98-768b-8006-8005-015aea95cc8e" data-testid="svg-path"><path d="M6.25 3A3.25 3.25 0 0 0 3 6.25v11.5A3.25 3.25 0 0 0 6.25 21h5.772a6.517 6.517 0 0 1-.709-1.5H6.25a1.75 1.75 0 0 1-1.75-1.75V6.25c0-.966.784-1.75 1.75-1.75h11.5c.966 0 1.75.784 1.75 1.75v5.063c.528.171 1.032.41 1.5.709V6.25A3.25 3.25 0 0 0 17.75 3H6.25ZM8 7.5a.5.5 0 0 0-.5.5v2.25a.75.75 0 0 1-1.5 0V8a2 2 0 0 1 2-2h2.25a.75.75 0 0 1 0 1.5H8Zm0 9a.5.5 0 0 1-.5-.5v-2.25a.75.75 0 0 0-1.5 0V16a2 2 0 0 0 2 2h2.25a.75.75 0 0 0 0-1.5H8ZM16.5 8a.5.5 0 0 0-.5-.5h-2.25a.75.75 0 0 1 0-1.5H16a2 2 0 0 1 2 2v2.25a.75.75 0 0 1-1.5 0V8Zm1 5.5a4 4 0 1 1 0 8 4 4 0 0 1 0-8Zm0 9.5a5.5 5.5 0 1 0 0-11 5.5 5.5 0 1 0 0 11Zm2.5-5.5a2.5 2.5 0 1 1-5 0 2.5 2.5 0 0 1 5 0Z" style="fill: rgb(0, 0, 0);" class="fills" id="fills-a8a19d98-768b-8006-8005-015aea95cc8e"/></g></g><g class="text-container" id="shape-a8a19d98-768b-8006-8005-015b06dd8b57" data-testid="Skrin"><defs><pattern patternUnits="userSpaceOnUse" x="28" y="1.25" width="50.953" height="31" id="fill-0-render-5-0"><rect width="50.953" height="31" style="fill: rgb(0, 0, 0); fill-opacity: 1;"/></pattern></defs><text x="28" y="29.547" dominant-baseline="ideographic" textLength="50.953" lengthAdjust="spacingAndGlyphs" style="text-transform: none; font-family: Coda; letter-spacing: normal; font-style: normal; font-weight: 400; white-space: pre; font-size: 22px; text-decoration: none solid rgb(0, 0, 0); direction: ltr; fill: rgb(0, 0, 0); fill-opacity: 1;" class="fills" id="fills-a8a19d98-768b-8006-8005-015b06dd8b57">Skrin</text></g></g></svg>